<svg width="30" height="26" viewBox="0 0 30 26" fill="none" xmlns="http://www.w3.org/2000/svg">
<path d="M6.40393 21.4885L8.0615 12.129C8.12546 11.768 7.93219 11.4134 7.62987 11.337C7.32754 11.2606 7.03063 11.4914 6.96667 11.8525L5.3091 21.2119C5.24515 21.573 5.43841 21.9276 5.74073 22.004C6.04306 22.0804 6.33997 21.8496 6.40393 21.4885ZM22.0055 12.1312L23.6932 21.4977C23.7583 21.8585 24.0559 22.088 24.3579 22.0104C24.66 21.9327 24.8523 21.5773 24.7872 21.2165L23.0994 11.8501C23.0344 11.4892 22.7368 11.2597 22.4347 11.3374C22.1327 11.415 21.9404 11.7704 22.0055 12.1312Z" fill="#49516B" stroke="#49516B" stroke-width="0.5"/>
<path d="M27.4309 8.2781L15.6409 2.44497C15.3511 2.30144 14.8058 2.30004 14.5152 2.4421L2.57974 8.27807L14.5154 14.1138C14.8056 14.2559 15.3509 14.2546 15.6412 14.1111L27.4309 8.27807V8.2781ZM16.0694 15.3458C15.5064 15.6242 14.6546 15.6264 14.0912 15.3505L1.66768 9.27626C0.777399 8.84038 0.777399 7.7151 1.66793 7.27981L14.0912 1.2053C14.6551 0.929655 15.5069 0.931808 16.0694 1.21039L28.3317 7.27714C29.2186 7.71572 29.2186 8.84045 28.3318 9.279L16.0694 15.3458ZM23.956 20.7807C21.2786 22.6589 18.2278 23.6636 15.0527 23.6636C11.8736 23.6636 8.81925 22.6565 6.13958 20.7739C5.87324 20.5867 5.53031 20.6929 5.37363 21.011C5.21695 21.3291 5.30585 21.7387 5.5722 21.9258C8.42267 23.9284 11.6727 25 15.0527 25C18.4285 25 21.6747 23.931 24.5228 21.933C24.7892 21.7461 24.8783 21.3366 24.7218 21.0184C24.5653 20.7002 24.2224 20.5937 23.956 20.7807Z" fill="#49516B" stroke="#49516B" stroke-width="0.5"/>
<path d="M27.8809 8.15455V17.8201C27.8809 18.1891 28.1314 18.4883 28.4404 18.4883C28.7494 18.4883 28.9999 18.1891 28.9999 17.8201V8.15455C28.9999 7.7855 28.7494 7.48633 28.4404 7.48633C28.1314 7.48633 27.8809 7.7855 27.8809 8.15455Z" fill="#49516B" stroke="#49516B" stroke-width="0.5"/>
</svg>
