<svg width="26" height="24" viewBox="0 0 26 24" fill="none" xmlns="http://www.w3.org/2000/svg">
<path d="M22.8165 5.35352H3.18279C1.97727 5.35352 1 6.33078 1 7.53631V20.6216C1 21.8271 1.97727 22.8044 3.18279 22.8044H22.8165C24.022 22.8044 24.9993 21.8271 24.9993 20.6216V7.53631C24.9993 6.33078 24.022 5.35352 22.8165 5.35352Z" stroke="#49516B" stroke-width="2" stroke-miterlimit="10" stroke-linecap="square"/>
<path d="M3.18303 5.35352H22.8167C23.3956 5.35352 23.9508 5.58349 24.3602 5.99284C24.7695 6.40219 24.9995 6.95739 24.9995 7.53631V8.67913C24.9995 9.83695 24.5396 10.9474 23.7209 11.7661C22.9021 12.5848 21.7917 13.0447 20.6339 13.0447H5.36582C4.78866 13.0447 4.21722 12.9303 3.68456 12.7081C3.1519 12.4858 2.6686 12.1602 2.26261 11.7499C1.85663 11.3397 1.53602 10.853 1.31934 10.3181C1.10265 9.78315 0.994196 9.21055 1.00024 8.63342V7.49059C1.0122 6.91964 1.24744 6.37611 1.6555 5.97659C2.06357 5.57708 2.61195 5.35339 3.18303 5.35352Z" stroke="#49516B" stroke-width="2" stroke-miterlimit="10" stroke-linecap="square"/>
<path d="M7.54883 12.9883V15.1711" stroke="#49516B" stroke-width="2" stroke-miterlimit="10" stroke-linecap="square"/>
<path d="M18.4512 12.9883V15.1711" stroke="#49516B" stroke-width="2" stroke-miterlimit="10" stroke-linecap="square"/>
<path d="M17.3659 5.35415H8.63477L9.73187 1H16.2688L17.3659 5.35415Z" stroke="#49516B" stroke-width="2" stroke-miterlimit="10" stroke-linecap="square"/>
</svg>
